<svg width="831" height="658" viewBox="0 0 831 658" fill="none" xmlns="http://www.w3.org/2000/svg">
<g filter="url(#filter0_d)">
<path fill-rule="evenodd" clip-rule="evenodd" d="M856.201 663.222C856.201 663.222 799.023 604.715 800.834 581.946C826.026 598.609 848.392 628.929 870.395 651.437C870.395 651.437 835.708 568.618 849.449 555.806C866.462 573.074 877.314 613.587 887.158 636.925C887.158 636.925 881.114 546.247 903.056 528.353C905.659 532.001 907.091 536.288 907.179 540.693C907.072 547.519 906.806 638.908 906.806 638.908C906.806 638.908 950.79 568.8 979.797 556.796L994.543 552.24C994.543 552.24 935.376 640.145 932.197 645.774C929.019 651.403 951.463 637.639 951.463 637.639C951.463 637.639 1020.39 587.221 1026.49 586.719C1026.49 586.719 999.814 635.488 963.892 651.518L941.162 661.153C941.162 661.153 953.67 666.347 963.181 661.452C972.691 656.557 995.509 652.299 1003.38 654.044C1011.26 655.79 1009.55 658.297 1009.55 658.297C1009.55 658.297 971.2 685.525 948.88 680.063C948.884 680.064 907.686 679.834 856.201 663.222Z" fill="url(#paint0_linear)"/>
</g>
<g filter="url(#filter1_d)">
<g filter="url(#filter2_d)">
<path fill-rule="evenodd" clip-rule="evenodd" d="M919.87 650.544C919.87 650.544 816.605 682.447 756.11 648.239C756.11 648.239 783.29 573.868 791.884 566.404C791.884 566.404 800.103 566.355 816.225 576.047L829.659 585.027C829.659 585.027 811.489 549.584 805.759 544.492C805.759 544.492 842.299 483.432 854.803 476.547C863.828 481.652 871.613 488.51 877.648 496.67C887.48 510.098 870.709 458.945 870.709 458.945L887.599 443.982C887.599 443.982 896.956 456.893 897.924 463.311C898.893 469.729 898.198 462.141 898.198 462.141C898.198 462.141 895.153 446.305 893.472 440.666C893.472 440.666 922.559 416.087 930.997 413.935C930.997 413.935 947.097 429.305 951.68 438.56C956.263 447.815 946.891 404.29 946.891 404.29C946.891 404.29 1003.97 373.57 1035.21 366.609C1035.21 366.609 1035.99 435.918 1020.78 456.126L989.759 461.395L1013.94 480.53C1013.94 480.53 1005.92 523.13 999.455 530.961L952.583 518.08C952.583 518.08 983.714 541.357 987.033 551.037C987.033 551.037 946.442 619.923 937.911 630.607C937.911 630.607 897.72 625.741 885.908 615.4C885.905 615.392 894.431 631.413 919.87 650.544Z" fill="url(#paint1_linear)"/>
</g>
<path fill-rule="evenodd" clip-rule="evenodd" d="M1004.05 423.357C1004.05 423.357 894.22 504.522 839.002 672.479C839.002 672.479 910.009 494.722 1004.05 423.357Z" fill="#3A8541" stroke="#204A24" stroke-width="0.216121"/>
</g>
<g filter="url(#filter3_d)">
<path fill-rule="evenodd" clip-rule="evenodd" d="M799.102 662.938C799.102 662.938 894.774 686.186 919.401 705.951C919.401 705.951 896.371 683.522 860.456 665.778C860.456 665.778 930.409 632.446 973.612 647.164C973.612 647.164 945.743 623.884 879.43 639.083L844.979 650.097C844.979 650.097 900.598 589.327 972.184 593.761C972.184 593.761 1002.08 596.42 1008.64 600.008C1015.2 603.596 1016.35 594.149 1016.35 594.149C979.269 570.006 873.954 582.02 848.943 614.598C848.943 614.598 874.27 567.944 902.273 554.781C902.273 554.781 821.901 569.736 799.102 636.676L796.857 643.774C796.857 643.774 794.008 657.377 799.102 662.938Z" fill="url(#paint2_linear)"/>
</g>
<g filter="url(#filter4_d)">
<path fill-rule="evenodd" clip-rule="evenodd" d="M784.857 673.515C784.857 673.515 862.362 642.542 870.598 621.086C840.407 626.428 806.862 645.318 777.039 657.231C777.039 657.231 844.607 595.315 837.646 578.271C814.647 587.361 787.169 620.036 768.064 637.456C768.064 637.456 812.942 557.188 800.717 532.309C796.761 534.618 793.595 537.964 791.602 541.943C788.738 548.204 749.299 631.586 749.299 631.586C749.299 631.586 739.66 550.517 718.438 528.244L706.978 518.329C706.978 518.329 722.728 621.551 723.18 627.922C723.633 634.293 709.157 612.985 709.157 612.985C709.157 612.985 668.237 540.11 662.9 537.27C662.9 537.27 666.032 592.132 691.804 620.775L708.333 638.436C708.333 638.436 694.68 638.281 688.139 630.106C681.598 621.931 662.656 609.133 654.722 607.648C646.787 606.163 647.252 609.112 647.252 609.112C647.252 609.112 670.38 648.911 693.091 652.652C693.087 652.65 730.726 668.54 784.857 673.515Z" fill="url(#paint3_linear)"/>
</g>
<g filter="url(#filter5_d)">
<path fill-rule="evenodd" clip-rule="evenodd" d="M541.483 671.838C541.483 671.838 644.748 703.74 705.243 669.533C705.243 669.533 678.063 595.161 669.469 587.697C669.469 587.697 661.25 587.648 645.128 597.34L631.694 606.321C631.694 606.321 649.864 570.877 655.594 565.785C655.594 565.785 619.054 504.726 606.55 497.841C597.525 502.946 589.74 509.803 583.705 517.964C573.873 531.391 590.644 480.239 590.644 480.239L573.754 465.275C573.754 465.275 564.397 478.187 563.429 484.605C562.46 491.022 563.155 483.434 563.155 483.434C563.155 483.434 566.2 467.599 567.881 461.959C567.881 461.959 538.794 437.381 530.356 435.228C530.356 435.228 514.256 450.599 509.673 459.854C505.09 469.109 514.462 425.584 514.462 425.584C514.462 425.584 457.385 394.864 426.146 387.902C426.146 387.902 425.358 457.211 440.577 477.42L471.594 482.688L447.411 501.824C447.411 501.824 455.428 544.424 461.898 552.255L508.77 539.374C508.77 539.374 477.639 562.65 474.32 572.33C474.32 572.33 514.911 641.216 523.442 651.9C523.442 651.9 563.633 647.035 575.445 636.693C575.448 636.685 566.922 652.706 541.483 671.838Z" fill="url(#paint4_linear)"/>
</g>
<path fill-rule="evenodd" clip-rule="evenodd" d="M457.305 444.65C457.305 444.65 567.133 525.815 622.351 693.772C622.351 693.772 551.344 516.015 457.305 444.65Z" fill="#3A8541" stroke="#204A24" stroke-width="0.216121"/>
<g filter="url(#filter6_d)">
<path fill-rule="evenodd" clip-rule="evenodd" d="M185.845 269.836C155.684 175.182 288.187 224.56 185.845 269.836V269.836Z" fill="url(#paint5_linear)" stroke="#539C25" stroke-width="0.216"/>
<path fill-rule="evenodd" clip-rule="evenodd" d="M310.955 543.037C110.939 595.488 226.236 406.368 310.955 543.037V543.037Z" fill="url(#paint6_linear)" stroke="#539C25" stroke-width="0.216"/>
<path fill-rule="evenodd" clip-rule="evenodd" d="M210.342 513.313C210.342 513.313 260.881 510.933 295.127 533.765C295.127 533.765 236.645 512.569 210.342 513.313Z" fill="#3F8F45"/>
<path fill-rule="evenodd" clip-rule="evenodd" d="M249.426 459.242C54.4946 483.358 189.003 320.419 249.426 459.242V459.242Z" fill="url(#paint7_linear)" stroke="#539C25" stroke-width="0.216"/>
<path fill-rule="evenodd" clip-rule="evenodd" d="M157.96 424.025C157.96 424.025 208.501 426.389 240.203 452.317C240.203 452.317 184.212 425.751 157.96 424.025Z" fill="#3F8F45"/>
<path fill-rule="evenodd" clip-rule="evenodd" d="M190.978 366.953C41.3873 385.458 144.609 260.417 190.978 366.953V366.953Z" fill="url(#paint8_linear)" stroke="#539C25" stroke-width="0.216"/>
<path fill-rule="evenodd" clip-rule="evenodd" d="M129.932 338.046C129.932 338.046 164.283 342.468 184.32 361.928C184.32 361.928 147.744 340.681 129.932 338.046Z" fill="#3F8F45"/>
<path fill-rule="evenodd" clip-rule="evenodd" d="M151.722 282.565C4.61957 250.831 147.072 167.39 151.722 282.565V282.565Z" fill="url(#paint9_linear)" stroke="#539C25" stroke-width="0.216"/>
<path fill-rule="evenodd" clip-rule="evenodd" d="M99.4059 239.593C99.4059 239.593 131.629 251.719 146.147 275.178C146.147 275.178 116.028 246.213 99.4059 239.593Z" fill="#3F8F45"/>
<path fill-rule="evenodd" clip-rule="evenodd" d="M409.029 627.909C409.029 627.909 368.715 587.452 334.111 582.957C315.855 580.587 273.601 592.052 290.864 617.149C331.364 676.021 366.375 635.138 409.029 627.909Z" fill="url(#paint10_linear)" stroke="#539C25" stroke-width="0.216"/>
<path fill-rule="evenodd" clip-rule="evenodd" d="M305.746 614.665C305.746 614.665 354.309 601.179 393.222 615.81C393.222 615.81 331.142 608.126 305.746 614.665Z" fill="#3F8F45"/>
<path fill-rule="evenodd" clip-rule="evenodd" d="M425.914 599.091C472.025 530.281 440.661 456.009 408.235 489.34C358.681 540.276 400.184 577.757 425.914 599.091Z" fill="url(#paint11_linear)" stroke="#539C25" stroke-width="0.216"/>
<path fill-rule="evenodd" clip-rule="evenodd" d="M408.654 499.558C408.654 499.558 403.778 547.336 426.217 580.856C426.217 580.856 406.638 524.447 408.654 499.558Z" fill="#3F8F45"/>
<path fill-rule="evenodd" clip-rule="evenodd" d="M346.159 508.739C211.386 404.249 443.486 355.537 346.159 508.739V508.739Z" fill="url(#paint12_linear)" stroke="#539C25" stroke-width="0.216"/>
<path fill-rule="evenodd" clip-rule="evenodd" d="M327.43 419.828C327.43 419.828 322.548 467.606 344.995 501.131C344.995 501.131 325.414 444.717 327.43 419.828Z" fill="#3F8F45"/>
<path fill-rule="evenodd" clip-rule="evenodd" d="M283.591 429.373C184.943 339.937 369.474 315.237 283.591 429.373V429.373Z" fill="url(#paint13_linear)" stroke="#539C25" stroke-width="0.216"/>
<path fill-rule="evenodd" clip-rule="evenodd" d="M284.215 367.939C284.215 367.939 272.929 396.392 280.823 420.398C280.823 420.398 278.656 382.844 284.215 367.939Z" fill="#3F8F45"/>
<path fill-rule="evenodd" clip-rule="evenodd" d="M498.438 650.95C356.495 560.22 217.96 403.464 174.204 245.182C152.567 166.914 152.196 93.8563 170.257 15.6153C150.629 88.5428 147.361 157.057 162.599 231.696C197.317 401.7 335.93 571.683 482.176 672.197C483.669 673.155 485.347 673.824 487.114 674.167C488.88 674.51 490.7 674.52 492.47 674.195C494.241 673.871 495.926 673.218 497.431 672.276C498.935 671.333 500.229 670.119 501.239 668.702C505.486 662.747 506.244 679.428 498.438 650.95Z" fill="url(#paint14_linear)"/>
<path fill-rule="evenodd" clip-rule="evenodd" d="M153.35 140.86C149.748 185.92 164.723 273.054 191.825 331.384C254.42 466.067 355.455 587.707 486.369 675.994C492.239 675.852 504.247 669.351 502.396 667.84C454.478 628.755 363.897 577.854 269.848 453.71C202.418 364.71 150.062 233.345 153.35 140.86Z" fill="#3F8F45"/>
<path fill-rule="evenodd" clip-rule="evenodd" d="M238.641 361.519C165.915 273.967 326.391 274.042 238.641 361.519V361.519Z" fill="url(#paint15_linear)" stroke="#539C25" stroke-width="0.216"/>
</g>
<g filter="url(#filter7_d)">
<path fill-rule="evenodd" clip-rule="evenodd" d="M472.275 686.291C472.275 686.291 394.77 655.318 386.534 633.862C416.725 639.204 450.27 658.094 480.093 670.007C480.093 670.007 412.525 608.091 419.486 591.047C442.485 600.137 469.963 632.812 489.068 650.232C489.068 650.232 444.19 569.964 456.415 545.085C460.37 547.394 463.537 550.74 465.53 554.719C468.394 560.98 507.833 644.362 507.833 644.362C507.833 644.362 517.472 563.293 538.694 541.02L550.154 531.105C550.154 531.105 534.404 634.327 533.951 640.698C533.499 647.069 547.974 625.761 547.974 625.761C547.974 625.761 588.895 552.886 594.232 550.046C594.232 550.046 591.1 604.908 565.328 633.551L548.799 651.212C548.799 651.212 562.452 651.057 568.993 642.882C575.534 634.707 594.476 621.909 602.41 620.424C610.345 618.939 609.88 621.888 609.88 621.888C609.88 621.888 586.752 661.687 564.041 665.428C564.044 665.426 526.406 681.316 472.275 686.291Z" fill="url(#paint16_linear)"/>
</g>
<g filter="url(#filter8_d)">
<path fill-rule="evenodd" clip-rule="evenodd" d="M621.92 694.808C621.92 694.808 544.414 663.835 536.178 642.379C566.37 647.722 599.915 666.612 629.737 678.525C629.737 678.525 562.17 616.608 569.13 599.564C592.129 608.654 619.607 641.33 638.712 658.749C638.712 658.749 593.834 578.481 606.059 553.603C610.015 555.911 613.181 559.258 615.174 563.237C618.039 569.497 657.477 652.88 657.477 652.88C657.477 652.88 667.116 571.81 688.338 549.537L699.798 539.622C699.798 539.622 684.048 642.845 683.596 649.216C683.143 655.587 697.619 634.279 697.619 634.279C697.619 634.279 738.539 561.403 743.876 558.564C743.876 558.564 740.744 613.426 714.972 642.069L698.443 659.729C698.443 659.729 712.096 659.574 718.637 651.399C725.179 643.224 744.12 630.427 752.055 628.941C759.989 627.456 759.524 630.405 759.524 630.405C759.524 630.405 736.396 670.204 713.685 673.946C713.689 673.943 676.05 689.833 621.92 694.808Z" fill="url(#paint17_linear)"/>
</g>
<path fill-rule="evenodd" clip-rule="evenodd" d="M104.748 547.141C-73.103 569.145 49.6144 420.482 104.748 547.141V547.141Z" fill="url(#paint18_linear)"/>
<path fill-rule="evenodd" clip-rule="evenodd" d="M24.8064 515.529C24.8064 515.529 70.7188 517.677 99.5179 541.232C99.5179 541.232 48.6552 517.093 24.8064 515.529Z" fill="#3F8F45"/>
<g filter="url(#filter9_d)">
<path fill-rule="evenodd" clip-rule="evenodd" d="M350.928 218.819C330.386 84.4694 499.623 177.205 350.928 218.819V218.819Z" fill="url(#paint19_linear)"/>
</g>
<path fill-rule="evenodd" clip-rule="evenodd" d="M104.756 64.6774C-102.459 75.3099 52.8283 -86.024 104.756 64.6774V64.6774Z" fill="url(#paint20_linear)"/>
<path fill-rule="evenodd" clip-rule="evenodd" d="M17.6559 20.7615C17.6559 20.7615 67.5624 28.6955 95.8631 57.9542C95.8631 57.9514 43.5175 25.3751 17.6559 20.7615Z" fill="#3F8F45"/>
<g filter="url(#filter10_d)">
<path fill-rule="evenodd" clip-rule="evenodd" d="M417.572 337.403C359.374 205.372 513.71 266.923 417.572 337.403V337.403Z" fill="url(#paint21_linear)"/>
<path fill-rule="evenodd" clip-rule="evenodd" d="M430.281 274.139C430.281 274.139 434.268 306.806 419.357 330.04C419.353 330.04 431.999 291.162 430.281 274.139Z" fill="#3F8F45"/>
</g>
<path fill-rule="evenodd" clip-rule="evenodd" d="M858.757 365.744C878.872 273.479 966.152 371.978 858.757 365.744V365.744Z" fill="url(#paint22_linear)"/>
<defs>
<filter id="filter0_d" x="796.792" y="528.353" width="233.695" height="160.434" filterUnits="userSpaceOnUse" color-interpolation-filters="sRGB">
<feFlood flood-opacity="0" result="BackgroundImageFix"/>
<feColorMatrix in="SourceAlpha" type="matrix" values="0 0 0 0 0 0 0 0 0 0 0 0 0 0 0 0 0 0 127 0"/>
<feOffset dy="4"/>
<feGaussianBlur stdDeviation="2"/>
<feColorMatrix type="matrix" values="0 0 0 0 0 0 0 0 0 0 0 0 0 0 0 0 0 0 0.25 0"/>
<feBlend mode="normal" in2="BackgroundImageFix" result="effect1_dropShadow"/>
<feBlend mode="normal" in="SourceGraphic" in2="effect1_dropShadow" result="shape"/>
</filter>
<filter id="filter1_d" x="752.11" y="366.609" width="287.103" height="313.907" filterUnits="userSpaceOnUse" color-interpolation-filters="sRGB">
<feFlood flood-opacity="0" result="BackgroundImageFix"/>
<feColorMatrix in="SourceAlpha" type="matrix" values="0 0 0 0 0 0 0 0 0 0 0 0 0 0 0 0 0 0 127 0"/>
<feOffset dy="4"/>
<feGaussianBlur stdDeviation="2"/>
<feColorMatrix type="matrix" values="0 0 0 0 0 0 0 0 0 0 0 0 0 0 0 0 0 0 0.25 0"/>
<feBlend mode="normal" in2="BackgroundImageFix" result="effect1_dropShadow"/>
<feBlend mode="normal" in="SourceGraphic" in2="effect1_dropShadow" result="shape"/>
</filter>
<filter id="filter2_d" x="750.11" y="363.609" width="291.103" height="309.455" filterUnits="userSpaceOnUse" color-interpolation-filters="sRGB">
<feFlood flood-opacity="0" result="BackgroundImageFix"/>
<feColorMatrix in="SourceAlpha" type="matrix" values="0 0 0 0 0 0 0 0 0 0 0 0 0 0 0 0 0 0 127 0"/>
<feOffset dy="3"/>
<feGaussianBlur stdDeviation="3"/>
<feColorMatrix type="matrix" values="0 0 0 0 0 0 0 0 0 0 0 0 0 0 0 0 0 0 0.5 0"/>
<feBlend mode="normal" in2="BackgroundImageFix" result="effect1_dropShadow"/>
<feBlend mode="normal" in="SourceGraphic" in2="effect1_dropShadow" result="shape"/>
</filter>
<filter id="filter3_d" x="790.063" y="551.781" width="232.283" height="163.17" filterUnits="userSpaceOnUse" color-interpolation-filters="sRGB">
<feFlood flood-opacity="0" result="BackgroundImageFix"/>
<feColorMatrix in="SourceAlpha" type="matrix" values="0 0 0 0 0 0 0 0 0 0 0 0 0 0 0 0 0 0 127 0"/>
<feOffset dy="3"/>
<feGaussianBlur stdDeviation="3"/>
<feColorMatrix type="matrix" values="0 0 0 0 0 0 0 0 0 0 0 0 0 0 0 0 0 0 0.161 0"/>
<feBlend mode="normal" in2="BackgroundImageFix" result="effect1_dropShadow"/>
<feBlend mode="normal" in="SourceGraphic" in2="effect1_dropShadow" result="shape"/>
</filter>
<filter id="filter4_d" x="643.247" y="518.329" width="231.351" height="163.186" filterUnits="userSpaceOnUse" color-interpolation-filters="sRGB">
<feFlood flood-opacity="0" result="BackgroundImageFix"/>
<feColorMatrix in="SourceAlpha" type="matrix" values="0 0 0 0 0 0 0 0 0 0 0 0 0 0 0 0 0 0 127 0"/>
<feOffset dy="4"/>
<feGaussianBlur stdDeviation="2"/>
<feColorMatrix type="matrix" values="0 0 0 0 0 0 0 0 0 0 0 0 0 0 0 0 0 0 0.25 0"/>
<feBlend mode="normal" in2="BackgroundImageFix" result="effect1_dropShadow"/>
<feBlend mode="normal" in="SourceGraphic" in2="effect1_dropShadow" result="shape"/>
</filter>
<filter id="filter5_d" x="420.139" y="384.902" width="291.103" height="309.455" filterUnits="userSpaceOnUse" color-interpolation-filters="sRGB">
<feFlood flood-opacity="0" result="BackgroundImageFix"/>
<feColorMatrix in="SourceAlpha" type="matrix" values="0 0 0 0 0 0 0 0 0 0 0 0 0 0 0 0 0 0 127 0"/>
<feOffset dy="3"/>
<feGaussianBlur stdDeviation="3"/>
<feColorMatrix type="matrix" values="0 0 0 0 0 0 0 0 0 0 0 0 0 0 0 0 0 0 0.5 0"/>
<feBlend mode="normal" in2="BackgroundImageFix" result="effect1_dropShadow"/>
<feBlend mode="normal" in="SourceGraphic" in2="effect1_dropShadow" result="shape"/>
</filter>
<filter id="filter6_d" x="81.1894" y="15.6153" width="427.202" height="668.379" filterUnits="userSpaceOnUse" color-interpolation-filters="sRGB">
<feFlood flood-opacity="0" result="BackgroundImageFix"/>
<feColorMatrix in="SourceAlpha" type="matrix" values="0 0 0 0 0 0 0 0 0 0 0 0 0 0 0 0 0 0 127 0"/>
<feOffset dy="4"/>
<feGaussianBlur stdDeviation="2"/>
<feColorMatrix type="matrix" values="0 0 0 0 0 0 0 0 0 0 0 0 0 0 0 0 0 0 0.25 0"/>
<feBlend mode="normal" in2="BackgroundImageFix" result="effect1_dropShadow"/>
<feBlend mode="normal" in="SourceGraphic" in2="effect1_dropShadow" result="shape"/>
</filter>
<filter id="filter7_d" x="382.534" y="531.105" width="231.351" height="163.186" filterUnits="userSpaceOnUse" color-interpolation-filters="sRGB">
<feFlood flood-opacity="0" result="BackgroundImageFix"/>
<feColorMatrix in="SourceAlpha" type="matrix" values="0 0 0 0 0 0 0 0 0 0 0 0 0 0 0 0 0 0 127 0"/>
<feOffset dy="4"/>
<feGaussianBlur stdDeviation="2"/>
<feColorMatrix type="matrix" values="0 0 0 0 0 0 0 0 0 0 0 0 0 0 0 0 0 0 0.25 0"/>
<feBlend mode="normal" in2="BackgroundImageFix" result="effect1_dropShadow"/>
<feBlend mode="normal" in="SourceGraphic" in2="effect1_dropShadow" result="shape"/>
</filter>
<filter id="filter8_d" x="532.178" y="539.622" width="231.351" height="163.186" filterUnits="userSpaceOnUse" color-interpolation-filters="sRGB">
<feFlood flood-opacity="0" result="BackgroundImageFix"/>
<feColorMatrix in="SourceAlpha" type="matrix" values="0 0 0 0 0 0 0 0 0 0 0 0 0 0 0 0 0 0 127 0"/>
<feOffset dy="4"/>
<feGaussianBlur stdDeviation="2"/>
<feColorMatrix type="matrix" values="0 0 0 0 0 0 0 0 0 0 0 0 0 0 0 0 0 0 0.25 0"/>
<feBlend mode="normal" in2="BackgroundImageFix" result="effect1_dropShadow"/>
<feBlend mode="normal" in="SourceGraphic" in2="effect1_dropShadow" result="shape"/>
</filter>
<filter id="filter9_d" x="345.17" y="148.745" width="71.5105" height="78.0743" filterUnits="userSpaceOnUse" color-interpolation-filters="sRGB">
<feFlood flood-opacity="0" result="BackgroundImageFix"/>
<feColorMatrix in="SourceAlpha" type="matrix" values="0 0 0 0 0 0 0 0 0 0 0 0 0 0 0 0 0 0 127 0"/>
<feOffset dy="4"/>
<feGaussianBlur stdDeviation="2"/>
<feColorMatrix type="matrix" values="0 0 0 0 0 0 0 0 0 0 0 0 0 0 0 0 0 0 0.25 0"/>
<feBlend mode="normal" in2="BackgroundImageFix" result="effect1_dropShadow"/>
<feBlend mode="normal" in="SourceGraphic" in2="effect1_dropShadow" result="shape"/>
</filter>
<filter id="filter10_d" x="400.04" y="259.781" width="53.9058" height="85.622" filterUnits="userSpaceOnUse" color-interpolation-filters="sRGB">
<feFlood flood-opacity="0" result="BackgroundImageFix"/>
<feColorMatrix in="SourceAlpha" type="matrix" values="0 0 0 0 0 0 0 0 0 0 0 0 0 0 0 0 0 0 127 0"/>
<feOffset dy="4"/>
<feGaussianBlur stdDeviation="2"/>
<feColorMatrix type="matrix" values="0 0 0 0 0 0 0 0 0 0 0 0 0 0 0 0 0 0 0.25 0"/>
<feBlend mode="normal" in2="BackgroundImageFix" result="effect1_dropShadow"/>
<feBlend mode="normal" in="SourceGraphic" in2="effect1_dropShadow" result="shape"/>
</filter>
<linearGradient id="paint0_linear" x1="902.769" y1="497.225" x2="908.946" y2="678.798" gradientUnits="userSpaceOnUse">
<stop stop-color="#D7FE38"/>
<stop offset="1" stop-color="#50B559"/>
</linearGradient>
<linearGradient id="paint1_linear" x1="976.176" y1="274.066" x2="997.131" y2="639.787" gradientUnits="userSpaceOnUse">
<stop stop-color="#D7FE38"/>
<stop offset="1" stop-color="#50B559"/>
</linearGradient>
<linearGradient id="paint2_linear" x1="959.024" y1="516.072" x2="867.542" y2="722.887" gradientUnits="userSpaceOnUse">
<stop stop-color="#D7FE38"/>
<stop offset="1" stop-color="#50B559"/>
</linearGradient>
<linearGradient id="paint3_linear" x1="845.406" y1="456.29" x2="735.57" y2="716.559" gradientUnits="userSpaceOnUse">
<stop stop-color="#D7FE38"/>
<stop offset="1" stop-color="#50B559"/>
</linearGradient>
<linearGradient id="paint4_linear" x1="485.177" y1="295.36" x2="464.222" y2="661.08" gradientUnits="userSpaceOnUse">
<stop stop-color="#D7FE38"/>
<stop offset="1" stop-color="#50B559"/>
</linearGradient>
<linearGradient id="paint5_linear" x1="203.295" y1="215.818" x2="203.295" y2="269.836" gradientUnits="userSpaceOnUse">
<stop stop-color="#D7FE38"/>
<stop offset="1" stop-color="#50B559"/>
</linearGradient>
<linearGradient id="paint6_linear" x1="255.532" y1="492.399" x2="255.532" y2="552.495" gradientUnits="userSpaceOnUse">
<stop stop-color="#D7FE38"/>
<stop offset="1" stop-color="#50B559"/>
</linearGradient>
<linearGradient id="paint7_linear" x1="198.583" y1="402.564" x2="198.583" y2="461.725" gradientUnits="userSpaceOnUse">
<stop stop-color="#D7FE38"/>
<stop offset="1" stop-color="#50B559"/>
</linearGradient>
<linearGradient id="paint8_linear" x1="151.961" y1="323.457" x2="151.961" y2="368.858" gradientUnits="userSpaceOnUse">
<stop stop-color="#D7FE38"/>
<stop offset="1" stop-color="#50B559"/>
</linearGradient>
<linearGradient id="paint9_linear" x1="118.51" y1="223.569" x2="118.51" y2="282.565" gradientUnits="userSpaceOnUse">
<stop stop-color="#D7FE38"/>
<stop offset="1" stop-color="#50B559"/>
</linearGradient>
<linearGradient id="paint10_linear" x1="347.917" y1="582.652" x2="347.917" y2="648.454" gradientUnits="userSpaceOnUse">
<stop stop-color="#D7FE38"/>
<stop offset="1" stop-color="#50B559"/>
</linearGradient>
<linearGradient id="paint11_linear" x1="417.114" y1="481.115" x2="417.114" y2="599.091" gradientUnits="userSpaceOnUse">
<stop stop-color="#D7FE38"/>
<stop offset="1" stop-color="#50B559"/>
</linearGradient>
<linearGradient id="paint12_linear" x1="336.825" y1="411.256" x2="336.825" y2="508.739" gradientUnits="userSpaceOnUse">
<stop stop-color="#D7FE38"/>
<stop offset="1" stop-color="#50B559"/>
</linearGradient>
<linearGradient id="paint13_linear" x1="280.402" y1="352.754" x2="280.402" y2="429.373" gradientUnits="userSpaceOnUse">
<stop stop-color="#D7FE38"/>
<stop offset="1" stop-color="#50B559"/>
</linearGradient>
<linearGradient id="paint14_linear" x1="383.875" y1="368.082" x2="235.569" y2="392.912" gradientUnits="userSpaceOnUse">
<stop stop-color="#D7FE38"/>
<stop offset="1" stop-color="#50B559"/>
</linearGradient>
<linearGradient id="paint15_linear" x1="242.394" y1="295.883" x2="242.394" y2="361.519" gradientUnits="userSpaceOnUse">
<stop stop-color="#D7FE38"/>
<stop offset="1" stop-color="#50B559"/>
</linearGradient>
<linearGradient id="paint16_linear" x1="411.726" y1="469.066" x2="521.562" y2="729.335" gradientUnits="userSpaceOnUse">
<stop stop-color="#D7FE38"/>
<stop offset="1" stop-color="#50B559"/>
</linearGradient>
<linearGradient id="paint17_linear" x1="561.37" y1="477.583" x2="671.206" y2="737.852" gradientUnits="userSpaceOnUse">
<stop stop-color="#D7FE38"/>
<stop offset="1" stop-color="#50B559"/>
</linearGradient>
<linearGradient id="paint18_linear" x1="58.3597" y1="495.429" x2="58.3597" y2="549.407" gradientUnits="userSpaceOnUse">
<stop stop-color="#D7FE38"/>
<stop offset="1" stop-color="#50B559"/>
</linearGradient>
<linearGradient id="paint19_linear" x1="392.489" y1="150.086" x2="366.425" y2="224.264" gradientUnits="userSpaceOnUse">
<stop stop-color="#D7FE38"/>
<stop offset="1" stop-color="#50B559"/>
</linearGradient>
<linearGradient id="paint20_linear" x1="52.3782" y1="0" x2="52.3782" y2="65.1857" gradientUnits="userSpaceOnUse">
<stop stop-color="#D7FE38"/>
<stop offset="1" stop-color="#50B559"/>
</linearGradient>
<linearGradient id="paint21_linear" x1="426.993" y1="259.781" x2="426.993" y2="337.403" gradientUnits="userSpaceOnUse">
<stop stop-color="#D7FE38"/>
<stop offset="1" stop-color="#50B559"/>
</linearGradient>
<linearGradient id="paint22_linear" x1="905.142" y1="331.947" x2="863.664" y2="370.961" gradientUnits="userSpaceOnUse">
<stop stop-color="#D7FE38"/>
<stop offset="1" stop-color="#50B559"/>
</linearGradient>
</defs>
</svg>
