<svg width="289" height="265" viewBox="0 0 289 265" fill="none" xmlns="http://www.w3.org/2000/svg">
<path d="M14 252V17L262 11L279 36.3416V235.076L248.103 252H14Z" fill="black"/>
<path d="M173.53 192.309H58.3448C53.058 192.309 48.7673 188.393 48.7673 183.568C48.7673 178.742 53.058 174.826 58.3448 174.826H173.53C178.817 174.826 183.108 178.742 183.108 183.568C183.108 188.393 178.817 192.309 173.53 192.309Z" fill="#EFEFEF"/>
<path d="M279.895 60.1924H9.02886C4.04493 60.1924 0 56.1474 0 51.1635C0 46.1796 4.04493 42.1346 9.02886 42.1346H279.895C284.879 42.1346 288.924 46.1796 288.924 51.1635C288.924 56.1474 284.879 60.1924 279.895 60.1924Z" fill="#EFEFEF"/>
<rect x="56.25" y="92.1354" width="176.424" height="55.8854" rx="17" stroke="#EFEFEF" stroke-width="20"/>
<rect x="48.7673" y="207.031" width="191.389" height="17.4826" rx="8.74132" fill="#EFEFEF"/>
<rect x="10.5" y="10.5" width="267.924" height="244" rx="26.5" stroke="black" stroke-width="21"/>
</svg>
