<svg width="289" height="265" viewBox="0 0 289 265" fill="none" xmlns="http://www.w3.org/2000/svg">
<path d="M19.5 248.5L13.5 18.5L255.371 10L278 42.0657V239.971L255.371 254L238.243 248.5H19.5Z" fill="black"/>
<rect x="10.5" y="10.5" width="267.924" height="244" rx="26.5" stroke="black" stroke-width="21"/>
<path d="M96.1079 144.207C99.7046 139.924 106.295 139.924 109.892 144.207L159.863 203.712C164.781 209.568 160.618 218.5 152.971 218.5H53.0286C45.3821 218.5 41.2191 209.568 46.1365 203.712L96.1079 144.207Z" stroke="#EFEFEF" stroke-width="13"/>
<path fill-rule="evenodd" clip-rule="evenodd" d="M196.465 107.491C190.518 97.0617 175.482 97.0616 169.535 107.491L132.739 172.021L141.366 183.136L180.828 113.931C181.788 112.248 184.213 112.248 185.172 113.931L238.961 208.262C239.912 209.928 238.708 212 236.79 212H163.31C165.522 217.62 161.472 224.25 154.902 224.25H124.384C125.884 224.735 127.501 225 129.21 225H236.79C248.685 225 256.147 212.155 250.254 201.822L196.465 107.491Z" fill="#EFEFEF"/>
<circle cx="100.5" cy="92.5" r="20.5" stroke="#EFEFEF" stroke-width="14"/>
</svg>
