<svg width="325" height="299" viewBox="0 0 325 299" fill="none" xmlns="http://www.w3.org/2000/svg">
<path fill-rule="evenodd" clip-rule="evenodd" d="M161.105 21.9262L42.8716 119.754L36.3707 125.133L23.0457 136.159L21.7708 137.213C20.3269 138.408 21.1717 140.754 23.0457 140.754H24.7006H41.9953H50.433H66V161.754H23.0457C1.49349 161.754 -8.22113 134.773 8.38353 121.034L147.718 5.74659C156.225 -1.29256 168.535 -1.29273 177.043 5.74658L316.377 121.034C332.982 134.773 323.267 161.754 301.715 161.754H260V140.754H274.328H282.765H300.06H301.715C303.589 140.754 304.434 138.408 302.99 137.213L301.715 136.159L288.39 125.133L281.889 119.754L163.655 21.9262C162.916 21.3141 161.845 21.3141 161.105 21.9262Z" fill="black"/>
<path fill-rule="evenodd" clip-rule="evenodd" d="M66 143.418H45.1611V164.418V262C45.1611 282.434 61.7266 299 82.1612 299H243.665C264.099 299 280.665 282.434 280.665 262V164.418V143.418H260V221H259.665V262C259.665 270.837 252.501 278 243.665 278H82.1612C73.3246 278 66.1611 270.836 66.1611 262V221H66V143.418Z" fill="black"/>
</svg>
