<svg width="325" height="299" viewBox="0 0 325 299" fill="none" xmlns="http://www.w3.org/2000/svg">
<path d="M233 285.5H92.5L60.5 276L55.5 150.5H31.5L8.5 141L160.5 11.5L315 135L309 150.5H268.5V187V232V270L253 285.5H233Z" fill="black"/>
<path fill-rule="evenodd" clip-rule="evenodd" d="M161.105 21.4591L42.8716 119.287L36.3707 124.666L23.0457 135.691L21.7708 136.746C20.3269 137.941 21.1717 140.287 23.0457 140.287H24.7006H41.9953H50.433H66V161.287H23.0457C1.49349 161.287 -8.22113 134.306 8.38353 120.567L147.718 5.27943C156.225 -1.75972 168.535 -1.75989 177.043 5.27942L316.377 120.567C332.982 134.306 323.267 161.287 301.715 161.287H260V140.287H274.328H282.765H300.06H301.715C303.589 140.287 304.434 137.941 302.99 136.746L301.715 135.691L288.39 124.666L281.889 119.287L163.655 21.4591C162.916 20.847 161.845 20.847 161.105 21.4591Z" fill="black"/>
<path fill-rule="evenodd" clip-rule="evenodd" d="M66 142.951H45.1611V163.951V261.533C45.1611 281.967 61.7266 298.533 82.1612 298.533H243.665C264.099 298.533 280.665 281.967 280.665 261.533V163.951V142.951H260V220.533H259.665V261.533C259.665 270.369 252.501 277.533 243.665 277.533H82.1612C73.3246 277.533 66.1611 270.369 66.1611 261.533V220.533H66V142.951Z" fill="black"/>
</svg>
